<svg id="Layer_1" data-name="Layer 1" xmlns="http://www.w3.org/2000/svg" viewBox="0 0 256 256"><defs><style>.cls-1{fill:#091f42;}.cls-2{fill:#c2c9d1;}.cls-3{fill:#1e58b1;}.cls-4{fill:#3a70c4;}</style></defs><g id="icon-256x256.psd"><rect class="cls-1" width="256" height="256"/><path class="cls-2" d="M98.48,161h1.9v20.54h10.79v1.74H98.48Z"/><path class="cls-2" d="M116,163.05a1.36,1.36,0,0,1,1.33-1.34,1.34,1.34,0,1,1,0,2.67A1.36,1.36,0,0,1,116,163.05Zm.46,4.07h1.74v16.14h-1.74Z"/><path class="cls-2" d="M122.83,167.12h1.93l5.85,14.1,5.84-14.1h2l-6.81,16.14h-2Z"/><path class="cls-2" d="M149.24,166.72c4.91,0,7.62,3.91,7.62,8.55v.47h-13.5c.17,3.51,2.51,6.41,6.28,6.41a7.15,7.15,0,0,0,5.31-2.23l.91,1.13a8.34,8.34,0,0,1-6.32,2.61c-4.71,0-8.08-3.51-8.08-8.49C141.46,170.5,144.77,166.72,149.24,166.72Zm-5.88,7.65h11.73c0-2.74-1.84-6.14-5.88-6.14C145.4,168.23,143.5,171.57,143.36,174.37Z"/><path class="cls-2" d="M88.84,209v19.24h-1.9V206h1.94l14,19V206h1.9v22.28h-1.87Z"/><path class="cls-2" d="M118.67,211.72c4.91,0,7.61,3.91,7.61,8.55v.47H112.79c.16,3.51,2.5,6.41,6.28,6.41a7.17,7.17,0,0,0,5.31-2.23l.9,1.13a8.32,8.32,0,0,1-6.31,2.61c-4.71,0-8.09-3.51-8.09-8.49C110.88,215.5,114.19,211.72,118.67,211.72Zm-5.88,7.65h11.72c0-2.74-1.84-6.14-5.88-6.14C114.82,213.23,112.92,216.57,112.79,219.37Z"/><path class="cls-2" d="M141.17,214.46l-4.54,13.8H135l-5.24-16.14h1.87l4.27,13.7,4.55-13.7h1.5l4.54,13.7,4.28-13.7h1.87l-5.25,16.14h-1.67Z"/><path class="cls-2" d="M157.17,224.82a6.69,6.69,0,0,0,5.21,2.37c2.71,0,4.31-1.34,4.31-3.21,0-2.07-2.2-2.67-4.54-3.27-2.67-.67-5.65-1.37-5.65-4.51,0-2.47,2.07-4.48,5.75-4.48a7.32,7.32,0,0,1,5.78,2.41l-1,1.2a5.88,5.88,0,0,0-4.81-2.14c-2.51,0-4,1.24-4,2.91,0,1.83,2.07,2.34,4.31,2.9,2.77.71,5.87,1.47,5.87,4.91,0,2.61-2,4.75-6,4.75a7.8,7.8,0,0,1-6.21-2.54Z"/></g><g id="_Group_" data-name="&lt;Group&gt;"><polygon class="cls-3" points="128 96.88 114.13 83 141.88 83 128 96.88"/><polygon class="cls-4" points="128 69.13 141.88 83 114.13 83 128 69.13"/><polyline class="cls-3" points="155.75 83 128 110.75 100.25 83 72.5 83 128 138.5 183.5 83"/><polygon class="cls-4" points="128 55.25 128 27.5 183.5 83 155.75 83 128 55.25"/></g></svg>